<?xml version="1.0" encoding="UTF-8"?>
<svg width="94px" height="91px" viewBox="0 0 94 91" version="1.1" xmlns="http://www.w3.org/2000/svg" xmlns:xlink="http://www.w3.org/1999/xlink">
    <title>_iconOpenBox</title>
    <g id="Saatva.com-/-Sleep-Retreat-Subscription" stroke="none" stroke-width="1" fill="none" fill-rule="evenodd">
        <g id="Desktop-/-Sleep-Retreat-Subscription-Mockup-v1" transform="translate(-667.000000, -1128.000000)" fill-rule="nonzero">
            <g id="[2]-how-it-works" transform="translate(0.000000, 870.000000)">
                <g id="_step-2" transform="translate(545.000000, 218.000000)">
                    <g id="_text" transform="translate(19.000000, 40.000000)">
                        <g id="_open-box" transform="translate(103.000000, 0.000000)">
                            <path d="M84.1136222,47.695294 C83.8245622,47.261704 83.3362822,46.999984 82.8128222,46.999984 L10.9378222,46.999984 C10.4143822,46.999984 9.92612223,47.261704 9.63702223,47.695294 L0.262022229,61.757294 C-0.0582877712,62.237764 -0.0856377712,62.854994 0.183897229,63.362794 C0.457337229,63.870604 0.984677229,64.187014 1.56279723,64.187014 L9.37529723,64.187014 L9.37529723,89.187014 C9.37529723,89.601074 9.53935723,89.999514 9.83232723,90.292514 C10.1252972,90.585514 10.5237372,90.749544 10.9378272,90.749544 L82.8128272,90.749544 C83.2268872,90.749544 83.6253272,90.585484 83.9183272,90.292514 C84.2113272,89.999544 84.3753572,89.601104 84.3753572,89.187014 L84.3753572,64.187014 L92.1878572,64.187014 C92.7659772,64.187014 93.2933572,63.870604 93.5667572,63.362794 C93.8362872,62.854984 93.8089472,62.237794 93.4886322,61.757294 L84.1136222,47.695294 Z M11.7736222,50.124294 L51.7696222,50.124294 L44.4766222,61.062294 L4.48062223,61.062294 L11.7736222,50.124294 Z M12.5001822,64.186294 L45.3121822,64.186294 C45.8356222,64.186294 46.3238822,63.924574 46.6129822,63.490984 L53.1246822,53.721484 L53.1246822,87.623484 L12.4996822,87.623484 L12.5001822,64.186294 Z M81.2501822,87.624294 L56.2501822,87.624294 L56.2501822,53.722294 L62.7618822,63.491794 C63.0509422,63.925384 63.5392222,64.187104 64.0626822,64.187104 L81.2506822,64.187104 L81.2501822,87.624294 Z M64.8981822,61.062294 L57.6051822,50.124294 L81.9761822,50.124294 L89.2691822,61.062294 L64.8981822,61.062294 Z" id="box" fill="#D5AA63"></path>
                            <path d="M45.3122822,39.187994 L48.4372822,39.187994 L48.4372822,43.875494 L45.3122822,43.875494 L45.3122822,39.187994 Z M48.4372822,36.062994 L45.3122822,36.062994 L45.3122822,25.124994 L48.4372822,25.124994 L48.4372822,36.062994 Z M74.5422822,19.980994 C68.8117822,25.676294 65.6008822,33.429994 65.6242822,41.507994 L65.6242822,43.875194 L62.4991665,43.875194 L62.4991665,41.507994 C62.4758442,32.601794 66.0148822,24.050994 72.3312822,17.769994 L74.5422822,19.980994 Z M76.1047822,18.418494 L73.8938822,16.207594 L77.0188822,13.082594 L79.2297822,15.293494 L76.1047822,18.418494 Z M21.4176822,17.770094 C27.7340822,24.051294 31.2731822,32.602094 31.2496822,41.508094 L31.2496822,43.875294 L28.1246822,43.875294 L28.1246822,41.508094 C28.1481202,33.429994 24.9371822,25.676094 19.2066822,19.981094 L21.4176822,17.770094 Z M17.6442822,18.418494 L14.5192822,15.293494 L16.7301822,13.082594 L19.8551822,16.207594 L17.6442822,18.418494 Z M54.8039822,31.973654 C54.5657022,31.391624 54.6985122,30.719754 55.1438222,30.270554 C55.5930422,29.825244 56.2649222,29.692434 56.8469222,29.930714 C57.4328622,30.172904 57.8117622,30.743214 57.8117622,31.376014 C57.8117622,31.790074 57.6477022,32.188514 57.3547322,32.481514 C57.0617622,32.774514 56.6633222,32.938544 56.2492322,32.938544 C55.6164722,32.938494 55.0461822,32.559584 54.8039822,31.973654 Z M74.8825822,40.153334 C75.1208622,40.735364 74.9880522,41.407234 74.5427422,41.856434 C74.0935222,42.301744 73.4216422,42.434554 72.8396422,42.196274 C72.2537022,41.954084 71.8748022,41.383774 71.8748022,40.750974 C71.8748022,39.887694 72.5740222,39.188474 73.4373022,39.188474 C74.0700922,39.188474 74.6403822,39.567404 74.8825822,40.153334 Z M79.5700822,24.528334 C79.8083622,25.110364 79.6755522,25.782234 79.2302422,26.231434 C78.7810222,26.676744 78.1091422,26.809554 77.5271422,26.571274 C76.9412022,26.329084 76.5623022,25.758774 76.5623022,25.125974 C76.5623022,24.262694 77.2615222,23.563474 78.1248022,23.563474 C78.7575922,23.563474 79.3278822,23.942404 79.5700822,24.528334 Z M34.4914822,28.848654 C34.2532022,28.266624 34.3860122,27.594754 34.8313222,27.145554 C35.2805422,26.700244 35.9524222,26.567434 36.5344222,26.805714 C37.1203622,27.047904 37.4992622,27.618214 37.4992622,28.251014 C37.4992622,28.665074 37.3352022,29.063514 37.0422322,29.356514 C36.7492622,29.649514 36.3508222,29.813544 35.9367322,29.813544 C35.3039722,29.813494 34.7336822,29.434584 34.4914822,28.848654 Z M21.7570822,38.590834 C21.9953622,39.172864 21.8625522,39.844734 21.4172422,40.293934 C20.9680222,40.739244 20.2961422,40.872054 19.7141422,40.633774 C19.1282022,40.391584 18.7493022,39.821274 18.7493022,39.188474 C18.7493022,38.325194 19.4485222,37.625974 20.3118022,37.625974 C20.9445922,37.625974 21.5148822,38.004904 21.7570822,38.590834 Z M15.0266222,23.680694 C15.6086522,23.442414 16.2805222,23.575224 16.7297222,24.020534 C17.1750322,24.469754 17.3078422,25.141634 17.0695622,25.723634 C16.8273722,26.309574 16.2570622,26.688474 15.6242622,26.688474 C14.7609822,26.688474 14.0617622,25.989254 14.0617622,25.125974 C14.0617622,24.493184 14.4406922,23.922894 15.0266222,23.680694 Z M59.8317822,18.418994 L62.0426822,16.208094 L65.1676822,19.333094 L62.9567822,21.543994 L59.8317822,18.418994 Z M76.1047822,33.395994 L73.8938822,35.606894 L70.7688822,32.481894 L72.9797822,30.270994 L76.1047822,33.395994 Z M54.2297822,38.083494 L57.3547822,41.208494 L55.1438822,43.419394 L52.0188822,40.294394 L54.2297822,38.083494 Z M30.7917822,21.544494 L28.5808822,19.333594 L31.7058822,16.208594 L33.9167822,18.419494 L30.7917822,21.544494 Z M37.0417822,41.856494 L34.8308822,39.645594 L37.9558822,36.520594 L40.1667822,38.731494 L37.0417822,41.856494 Z M22.9797822,30.918494 L19.8547822,34.043494 L17.6438822,31.832594 L20.7688822,28.707594 L22.9797822,30.918494 Z M69.8547822,10.606494 L67.6438822,8.395594 L70.7688822,5.270594 L72.9797822,7.481494 L69.8547822,10.606494 Z M25.4567822,9.043994 L22.3317822,5.918994 L24.5426822,3.708094 L27.6676822,6.833094 L25.4567822,9.043994 Z" id="surprise" fill="#FFFFFF"></path>
                            <path d="M40,7.5 C40,6.6738 40.6738334,6 41.5,6 L47.5000375,6 C48.0537503,6 48.5664678,6.30762 48.8213191,6.79395 C49.0849904,7.28028 49.0527628,7.875 48.7451487,8.33205 L44.2978515,15 L47.5,15 C48.3261966,15 49,15.67383 49,16.5 C49,17.32617 48.3261666,18 47.5,18 L41.4999625,18 C40.9462497,18 40.4335322,17.69238 40.1786809,17.20605 C39.9150096,16.71972 39.9472372,16.125 40.2548513,15.66795 L44.7021485,9 L41.5,9 C40.6738034,9 40,8.32617 40,7.5 Z M53.5,0 L59.5000375,0 C60.0537503,0 60.5664678,0.30762 60.8213191,0.79395 C61.0849904,1.28028 61.0527628,1.875 60.7451487,2.33205 L56.2978515,9 L59.5,9 C60.3261966,9 61,9.67383 61,10.5 C61,11.32617 60.3261666,12 59.5,12 L53.4999625,12 C52.9462497,12 52.4335322,11.69238 52.1786809,11.20605 C51.9150096,10.71972 51.9472372,10.125 52.2548513,9.66795 L56.7021485,3 L53.5,3 C52.6738034,3 52,2.32617 52,1.5 C52,0.6738 52.6738334,0 53.5,0 Z" id="ZZ" fill="#D5AA63"></path>
                        </g>
                    </g>
                </g>
            </g>
        </g>
    </g>
</svg>