<?xml version="1.0" encoding="UTF-8"?>
<svg width="96px" height="80px" viewBox="0 0 96 80" version="1.1" xmlns="http://www.w3.org/2000/svg" xmlns:xlink="http://www.w3.org/1999/xlink">
    <title>_iconSignUp</title>
    <g id="Saatva.com-/-Sleep-Retreat-Subscription" stroke="none" stroke-width="1" fill="none" fill-rule="evenodd">
        <g id="Desktop-/-Sleep-Retreat-Subscription-Mockup-v1" transform="translate(-291.000000, -1139.000000)" fill-rule="nonzero">
            <g id="[2]-how-it-works" transform="translate(0.000000, 870.000000)">
                <g id="_step-1" transform="translate(165.000000, 218.000000)">
                    <g id="_text" transform="translate(4.000000, 51.000000)">
                        <g id="np_sign-up_52477_000000" transform="translate(122.000000, 0.000000)">
                            <path d="M64,79.301 L2.301,79.301 C1.301,79.301 0.5002,78.50022 0.5002,77.5002 L0.5002,2.5002 C0.5002,1.5002 1.30098,0.6994 2.301,0.6994 L64,0.6994 C65,0.6994 65.8008,1.50018 65.8008,2.5002 L65.8008,40.0002 C65.8008,41.0002 65.00002,41.801 64,41.801 C62.99998,41.801 62.1992,41.00022 62.1992,40.0002 L62.1992,4.3982 L4.1992,4.3982 L4.1992,75.6992 L62.1992,75.6992 L62.1992,70 C62.1992,69 62.99998,68.1992 64,68.1992 C65.00002,68.1992 65.8008,68.99998 65.8008,70 L65.8008,77.5 C65.8008,78.5 65.00002,79.301 64,79.301 L64,79.301 Z" id="Path" fill="#FFFFFF"></path>
                            <path d="M57.199,64.801 C56.699,64.801 56.30056,64.60178 55.8982,64.301 C55.29664,63.69944 55.19898,62.9026 55.49976,62.1994 L59.49976,54.5002 C59.60132,54.30098 59.69898,54.19942 59.80054,54.0002 L88.69854,24.6992 C89.39776,23.99998 90.49934,23.99998 91.30014,24.6992 L94.90174,28.1992 C95.30018,28.49998 95.5033,28.99998 95.5033,29.5 C95.5033,30.00002 95.30408,30.5 95.0033,30.8008 L65.9993,60.1018 C65.89774,60.20336 65.69852,60.30102 65.60086,60.40258 L57.99926,64.60178 C57.80004,64.801 57.49926,64.801 57.19848,64.801 L57.199,64.801 Z M62.6013,56.3987 L61.4997,58.5003 L63.6013,57.3011 L90.9993,29.5001 L89.9993,28.5001 L62.6013,56.3987 Z" id="Shape" fill="#FFFFFF"></path>
                            <path d="M20.699,59.305 C21.49978,59.305 22.0974,59.90656 22.0974,60.7034 L22.0974,68.9026 C21.999744,69.69948 21.39818,70.301 20.699,70.301 L12.4998,70.301 C11.69902,70.301 11.1014,69.69944 11.1014,68.9026 L11.1014,60.7034 C11.1014,59.90262 11.70296,59.305 12.4998,59.305 L20.699,59.305 Z M36.801,59.305 C37.60178,59.305 38.1994,59.90656 38.1994,60.7034 L38.1994,68.9026 C38.1994,69.69948 37.50018,70.301 36.801,70.301 L28.6018,70.301 C27.80102,70.301 27.2034,69.69944 27.2034,68.9026 L27.2034,60.7034 C27.2034,59.90262 27.80496,59.305 28.6018,59.305 L36.801,59.305 Z M51.8984,59.305 C52.69918,59.305 53.2968,59.90656 53.2968,60.7034 C53.2968,61.50418 52.69524,62.1018 51.8984,62.1018 L47,62.1018 L47,67.6018 L52,67.6018 C52.80078,67.6018 53.3984,68.20336 53.3984,69.0002 C53.3984,69.80098 52.69918,70.301 52,70.301 L45.6992,70.301 C44.89842,70.301 44.3008,69.69944 44.3008,68.9026 L44.3008,60.7034 C44.3008,59.90262 44.90236,59.305 45.6992,59.305 L51.8984,59.305 Z M19.3006,62.1018 L13.8006,62.1018 L13.8006,67.6018 L19.3006,67.6018 L19.3006,62.1018 Z M35.3987,62.1018 L29.8987,62.1018 L29.8987,67.6018 L35.3987,67.6018 L35.3987,62.1018 Z M55.199,43.4024 C55.99978,43.4024 56.5974162,44.00396 56.5974162,44.8008 L56.5974162,52.1016 C56.601306,52.89848 55.89818,53.5 55.199,53.5 L11.301,53.5 C10.50022,53.5 9.9026,52.89844 9.9026,52.1016 L9.9026,44.8008 C9.9026,44.00002 10.50416,43.4024 11.301,43.4024 L55.199,43.4024 Z M53.801,46.1992 L12.699,46.1992 L12.699,50.8008 L53.801,50.8008 L53.801,46.1992 Z M55.098,27.1014 C55.89878,27.1014 56.4964189,27.70296 56.4964189,28.4998 L56.4964189,35.8006 C56.500306,36.60138 55.89874,37.199 55.1019,37.199 L11.2,37.199 C10.39922,37.199 9.8016,36.59744 9.8016,35.8006 L9.8016,28.4998 C9.8016,27.69902 10.40316,27.1014 11.2,27.1014 L55.098,27.1014 Z M53.704,29.8982 L12.602,29.8982 L12.602,34.4998 L53.704,34.4998 L53.704,29.8982 Z M55.098,10.8004 C55.89878,10.8004 56.4964189,11.40196 56.4964189,12.1988 L56.4964189,19.4996 C56.500306,20.30038 55.89874,20.898 55.1019,20.898 L11.2,20.898 C10.39922,20.898 9.8016,20.29644 9.8016,19.4996 L9.8016,12.1988 C9.8016,11.39802 10.40316,10.8004 11.2,10.8004 L55.098,10.8004 Z M53.704,13.5972 L12.602,13.601106 L12.602,18.1988 L53.704,18.1988 L53.704,13.5972 Z" id="Combined-Shape" fill="#D5AA63"></path>
                        </g>
                    </g>
                </g>
            </g>
        </g>
    </g>
</svg>