<?xml version="1.0" encoding="UTF-8"?>
<svg width="124px" height="89px" viewBox="0 0 124 89" version="1.1" xmlns="http://www.w3.org/2000/svg" xmlns:xlink="http://www.w3.org/1999/xlink">
    <title>_iconSkipDelivery</title>
    <g id="Saatva.com-/-Sleep-Retreat-Subscription" stroke="none" stroke-width="1" fill="none" fill-rule="evenodd">
        <g id="Desktop-/-Sleep-Retreat-Subscription-Mockup-v1" transform="translate(-1038.000000, -1131.000000)">
            <g id="[2]-how-it-works" transform="translate(0.000000, 870.000000)">
                <g id="_step-3" transform="translate(926.000000, 218.000000)">
                    <g id="_text" transform="translate(34.000000, 43.000000)">
                        <g id="_skip-delivery" transform="translate(78.000000, 0.000000)">
                            <path d="M124,88 L124,57.3333333 C124,56.5989333 123.414061,56 122.695652,56 L93.3043478,56 C92.585913,56 92,56.59896 92,57.3333333 L92,88 L124,88 Z M109.956522,59.6666667 L109.956522,66.3333333 L106.043478,66.3333333 L106.043478,59.6666667 L109.956522,59.6666667 Z M95.6086957,59.6666667 L103.434783,59.6666667 L103.434783,67.6666667 C103.434783,68.4010667 104.020722,69 104.73913,69 L111.26087,69 C111.979304,69 112.565217,68.40104 112.565217,67.6666667 L112.565217,59.6666667 L120.391304,59.6666667 L120.391304,84.6554577 L95.6086957,84.6554577 L95.6086957,59.6666667 Z" id="Shape" fill="#FFFFFF" fill-rule="nonzero"></path>
                            <path d="M32,88 L32,57.3333333 C32,56.5989333 31.4140609,56 30.6956522,56 L1.30434783,56 C0.585913043,56 0,56.59896 0,57.3333333 L0,88 L32,88 Z M17.9565217,59.6666667 L17.9565217,66.3333333 L14.0434783,66.3333333 L14.0434783,59.6666667 L17.9565217,59.6666667 Z M3.60869565,59.6666667 L11.4347826,59.6666667 L11.4347826,67.6666667 C11.4347826,68.4010667 12.0207217,69 12.7391304,69 L19.2608696,69 C19.9793043,69 20.5652174,68.40104 20.5652174,67.6666667 L20.5652174,59.6666667 L28.3913043,59.6666667 L28.3913043,84.6554577 L3.60869565,84.6554577 L3.60869565,59.6666667 Z" id="Shape" fill="#FFFFFF" fill-rule="nonzero"></path>
                            <path d="M46,55 L78,55 L78,87 L46,87 L46,55 Z" id="dotted-box" stroke="#FFFFFF" stroke-width="3" stroke-linecap="square" stroke-linejoin="round" stroke-dasharray="2,6"></path>
                            <path d="M103.067897,39.8713659 L96.3812811,48.2181891 C94.0684646,27.5412562 76.4911638,11.4075909 55.2024095,11.4075909 C39.4239953,11.4075909 25.2231594,20.1809786 18.140504,34.3041856 C17.6522442,35.2755738 18.0479913,36.4627969 19.0193822,36.9510698 C19.9907704,37.4393296 21.1779935,37.0435838 21.6662664,36.0721916 C28.075392,23.2951234 40.9248262,15.3544707 55.2019753,15.3544707 C74.6197402,15.3544707 90.6349885,30.1868642 92.5151881,49.1217507 L83.6493035,42.0188328 C82.8012664,41.3404083 81.5575321,41.4740354 80.873871,42.3272171 C80.190302,43.1752542 80.3290736,44.4189885 81.1771107,45.1026496 L93.496826,54.9758686 C93.8617347,55.2688324 94.2986147,55.4075909 94.7303369,55.4075909 C95.3059754,55.4075909 95.8816138,55.1557441 96.2722585,54.6674843 L106.145478,42.347769 C106.829047,41.4894559 106.690275,40.2507346 105.842238,39.5672051 C104.995293,38.8845571 103.751558,39.0284602 103.067897,39.8713659 Z" id="Path" fill="#D5AA63" fill-rule="nonzero" transform="translate(62.255678, 33.407591) rotate(-15.000000) translate(-62.255678, -33.407591) "></path>
                        </g>
                    </g>
                </g>
            </g>
        </g>
    </g>
</svg>