<?xml version="1.0" encoding="UTF-8"?>
<svg width="1442px" height="70px" viewBox="0 0 1442 70" version="1.1" xmlns="http://www.w3.org/2000/svg" xmlns:xlink="http://www.w3.org/1999/xlink">
    <title>_navBar</title>
    <g id="Saatva.com-/-Sleep-Retreat-Subscription" stroke="none" stroke-width="1" fill="none" fill-rule="evenodd">
        <g id="_navBar" transform="translate(1.000000, 0.000000)">
            <g id="[...]-menu_tab" transform="translate(0.000000, 40.000000)">
                <g id="container">
                    <rect fill="#FFFFFF" x="0" y="0" width="1440" height="30"></rect>
                    <line x1="0" y1="29.5" x2="1440" y2="29.5" id="_divider_" stroke="#F6F5F3" stroke-linecap="square"></line>
                </g>
                <g id="_category-tabs" transform="translate(515.000000, 6.000000)" font-size="14">
                    <g id="_text">
                        <text id="Sale" font-family="SourceSansPro-Regular, Source Sans Pro" font-weight="normal" fill="#CE5532">
                            <tspan x="384" y="14">Sale</tspan>
                        </text>
                        <text id="Collections" font-family="SourceSansPro-Light, Source Sans Pro" font-weight="300" fill="#000000">
                            <tspan x="280" y="14">Collections</tspan>
                        </text>
                        <text id="Furniture" font-family="SourceSansPro-Light, Source Sans Pro" font-weight="300" fill="#000000">
                            <tspan x="188" y="14">Furniture</tspan>
                        </text>
                        <text id="Bedding" font-family="SourceSansPro-Light, Source Sans Pro" font-weight="300" fill="#000000">
                            <tspan x="100" y="14">Bedding</tspan>
                        </text>
                        <text id="Mattresses" font-family="SourceSansPro-Light, Source Sans Pro" font-weight="300" fill="#000000">
                            <tspan x="0" y="14">Mattresses</tspan>
                        </text>
                    </g>
                </g>
            </g>
            <g id="[...]-menu_logo">
                <g id="container">
                    <rect fill="#FFFFFF" transform="translate(720.000000, 20.000000) scale(1, -1) translate(-720.000000, -20.000000) " x="0" y="0" width="1440" height="40"></rect>
                    <line x1="0" y1="39.5" x2="1440" y2="39.5" id="_divider_" stroke="#F6F5F3" stroke-linecap="square"></line>
                </g>
                <g id="_icons" transform="translate(1159.000000, 10.000000)">
                    <g id="cart" transform="translate(95.000000, 0.000000)" fill="#000000" fill-rule="nonzero">
                        <path d="M20.7455878,4.8586487 C20.524508,4.58034614 20.1975081,4.40412326 19.8412014,4.37126763 L4.56043136,2.69658752 L4.56043136,2.5338964 C4.39313388,1.13475274 3.32145001,-2.18491891e-13 2.15596755,-2.18491891e-13 L0.452193194,-2.18491891e-13 C0.206960166,-0.00417605307 0.004597481,0.188838677 0,0.431373243 C0,0.669525355 0.202996945,0.863370098 0.452193194,0.863370098 L2.15596755,0.863370098 C2.86085694,0.863370098 3.53914673,1.66990269 3.64274517,2.62320344 L4.35673443,9.36761587 C4.44353312,10.6172222 4.20273674,11.8668284 3.65674496,13.004974 C3.34118256,13.4875547 3.32523682,14.1042134 3.61544558,14.6021162 C4.01907765,15.1407895 4.67589422,15.4344209 5.35141945,15.3781875 L19.2847097,15.3781875 C19.5299428,15.3824322 19.7323055,15.1894175 19.7369029,14.9468829 C19.7323055,14.7043484 19.5299428,14.5113336 19.2847097,14.5155784 L5.32901979,14.5155784 C4.96915704,14.5606562 4.61006608,14.4266334 4.37003423,14.1576579 C4.25674793,13.913288 4.28621711,13.6273965 4.44703307,13.4106634 C4.69029425,12.957698 4.87558342,12.4765387 4.99862476,11.9782892 L18.5574207,11.9782892 C19.2924096,11.9706738 19.9231001,11.4749851 20.0721979,10.7875286 L20.9758843,5.82925702 C21.0458832,5.48933642 20.9618845,5.13695437 20.7448878,4.8586487 L20.7455878,4.8586487 Z M19.1818113,10.6276067 C19.1102797,10.9086878 18.8594104,11.1090988 18.5665206,11.1191416 L5.17992204,11.1191416 C5.28492046,10.5119922 5.31292003,9.89515049 5.2618208,9.28177034 L4.65142999,3.57719649 L19.7432028,5.2248768 C19.8503012,5.23595365 19.9482998,5.28856865 20.0140988,5.37026036 C20.0795573,5.4507473 20.1075292,5.55486742 20.0910976,5.65687366 L19.1825113,10.6276067 L19.1818113,10.6276067 Z M16.7220483,20 C15.6480916,20 14.7774776,19.1389465 14.7774776,18.0767832 C14.7774776,17.0146199 15.6480916,16.1535665 16.7220483,16.1535665 C17.7960051,16.1535665 18.666619,17.0146199 18.666619,18.0767832 C18.666619,19.1389465 17.7960051,20 16.7220483,20 Z M16.7220483,17.0085602 C16.3361715,17.0085602 15.9796067,17.2121624 15.7866683,17.5426717 C15.5937299,17.8731811 15.5937299,18.2803854 15.7866683,18.6108947 C15.9796067,18.9414041 16.3361715,19.1450062 16.7220483,19.1450062 C17.3185621,19.1450062 17.802132,18.6667465 17.802132,18.0767832 C17.802132,17.48682 17.3185621,17.0085602 16.7220483,17.0085602 L16.7220483,17.0085602 Z M6.6107005,20 C5.53674374,20 4.66612977,19.1389465 4.66612977,18.0767832 C4.66612977,17.0146199 5.53674374,16.1535665 6.6107005,16.1535665 C7.68465726,16.1535665 8.55527123,17.0146199 8.55527123,18.0767832 C8.55527123,19.1389465 7.68465726,20 6.6107005,20 Z M6.6107005,17.0085602 C6.22482373,17.0085602 5.86825889,17.2121624 5.6753205,17.5426717 C5.48238211,17.8731811 5.48238211,18.2803854 5.6753205,18.6108947 C5.86825889,18.9414041 6.22482373,19.1450062 6.6107005,19.1450062 C7.20721426,19.1450062 7.6907842,18.6667465 7.6907842,18.0767832 C7.6907842,17.48682 7.20721426,17.0085602 6.6107005,17.0085602 L6.6107005,17.0085602 Z" id="icon_cart"></path>
                    </g>
                    <g id="_sign-in-account" transform="translate(0.000000, 1.000000)">
                        <g id="account_default" transform="translate(49.000000, 1.000000)" stroke="#000000">
                            <circle id="Oval" stroke-linecap="round" cx="8" cy="8" r="8"></circle>
                            <path d="M2.28571429,13.7142857 C4.06381782,12.9931779 6.01532561,12.6028764 8,12.5714286 C9.98672764,12.5898088 11.9417468,12.9808126 13.7142857,13.7142857" id="Path"></path>
                            <circle id="Oval" cx="8" cy="8" r="2.40909091"></circle>
                        </g>
                        <text id="Sign-In" font-family="SourceSansPro-Light, Source Sans Pro" font-size="14" font-weight="300" fill="#000000">
                            <tspan x="0.626" y="14">Sign In</tspan>
                        </text>
                    </g>
                </g>
                <g id="_logo" transform="translate(674.000000, 12.000000)" fill="#000000" fill-rule="nonzero">
                    <g id="saatva">
                        <path d="M18.0135458,2 C21.9671031,2 25,5.07961165 25,9.01272923 L25,15.6651564 L22.7793975,15.6651564 L22.7793975,13.593959 C21.6740367,15.0932752 19.8785163,15.9895541 17.9593627,16 C14.1137199,16 11,12.9984898 11,9.01272923 C11,5.00194175 14.141263,2 18.0135458,2 Z M34.0133196,2 C37.9667494,2 41,5.07961165 41,9.01272923 L40.998194,15.6651564 L38.7790176,15.6651564 L38.7790176,13.593959 C37.6737848,15.0931516 35.8785217,15.989415 33.9595898,16 C30.114071,16 27,12.9984898 27,9.01272923 C27,5.00194175 30.1411617,2 34.0133196,2 Z M55.3233301,2 L58.9873077,12.9288305 L59.0131225,12.9288305 L62.6766699,2 L65,2 L60.1734968,16 L57.8256427,16 L53,2 L55.3233301,2 Z M73.0137711,2 C76.967201,2.0012945 80,5.08090615 80,9.01402373 L80,15.6651564 L77.7790176,15.6651564 L77.7790176,13.593959 C76.6737848,15.0931516 74.8785217,15.989415 72.9595898,16 C69.114071,16 66,12.9984898 66,9.01272923 C66,5.00194175 69.1411617,2 73.0137711,2 Z M4.91366817,2.00189609 C6.61275057,1.96183068 8.26988705,2.55784195 9.58800878,3.68308513 L9.58800878,3.68308513 L8.41662871,5.41465338 C7.41380665,4.55815014 6.17099444,4.06997921 4.87847294,4.02488202 C3.59239783,4.02488202 2.69388431,4.71716188 2.69388431,5.70867689 L2.69388431,5.70867689 L2.69388431,5.7477642 C2.69388431,6.86653015 3.37128897,7.34209253 5.85565815,7.95923788 C8.83814335,8.7201377 10,9.83108618 10,11.9218235 L10,11.9218235 L10,11.9609108 C10,14.4142915 8.18765269,16 5.38279988,16 C3.39744383,16.0081886 1.47964045,15.2442608 0,13.8557772 L0,13.8557772 L1.31381723,12.2162813 C2.66697031,13.4327655 3.94103764,13.9760793 5.43704194,13.9760793 C6.85561674,13.9760793 7.80795826,13.2612156 7.80795826,12.1954347 L7.80795826,12.1954347 L7.80795826,12.1563474 C7.80795826,11.0619024 7.10860834,10.5589789 4.81470747,10.003939 C2.01772183,9.2951556 0.501842574,8.44131482 0.501842574,5.96274446 L0.501842574,5.96274446 L0.501842574,5.92365714 C0.501842574,3.61489947 2.3162602,2.00189609 4.91366817,2.00189609 Z M46.1033979,0 L46.1033979,2.99353798 L50,2.99353798 L50,4.87721821 L46.1033979,4.87721821 L46.1033979,11.1561365 C46.1033979,13.4793916 48.1095688,14.0663775 50,13.9654959 L50,15.9554588 C46.4517454,16.3130137 44,14.5001255 44,11.1561365 L44,0 L46.1033979,0 Z M18.0135458,4.02157497 C15.4136619,4.02157497 13.3018771,6.22222222 13.3018771,9.01574973 C13.3018771,11.8092772 15.4136619,13.9590076 18.0135458,13.9590076 C20.5872412,13.9590076 22.7252145,11.7583603 22.7252145,9.01574973 C22.7252145,6.24509169 20.5587951,4.02157497 18.0135458,4.02157497 Z M73.0137711,4.02157497 C70.413971,4.02157497 68.3018028,6.22222222 68.3018028,9.01574973 C68.3018028,11.8092772 70.413971,13.9590076 73.0137711,13.9590076 C75.5873835,13.9590076 77.7252878,11.7583603 77.7252878,9.01574973 C77.7252878,6.24509169 75.5589383,4.02157497 73.0137711,4.02157497 Z M34.0133196,4.02157497 C31.413971,4.02157497 29.3018028,6.22222222 29.3018028,9.01574973 C29.3018028,11.8092772 31.413971,13.9572816 34.0133196,13.9572816 C36.586932,13.9572816 38.7248363,11.7566343 38.7248363,9.01402373 C38.7248363,6.24509169 36.5584868,4.02157497 34.0133196,4.02157497 Z"></path>
                    </g>
                </g>
                <g id="search" transform="translate(165.000000, 11.000000)">
                    <text id="Search" font-family="SourceSansPro-Light, Source Sans Pro" font-size="14" font-weight="300" fill="#000000">
                        <tspan x="26" y="14">Search</tspan>
                    </text>
                    <g id="􀊫-search" transform="translate(0.000000, 1.000000)" stroke="#000000">
                        <line x1="13.4936344" y1="11.0364339" x2="13.556391" y2="16.5694834" id="Line" stroke-width="1.5" stroke-linecap="round" transform="translate(13.056391, 13.674747) rotate(-45.000000) translate(-13.056391, -13.674747) "></line>
                        <circle id="Oval" fill="#FFFFFF" transform="translate(7.000000, 7.000000) rotate(-360.000000) translate(-7.000000, -7.000000) " cx="7" cy="7" r="6.5"></circle>
                    </g>
                </g>
            </g>
        </g>
    </g>
</svg>